<svg width="26" height="17" viewBox="0 0 26 17" fill="none" xmlns="http://www.w3.org/2000/svg">
<g clip-path="url(#clip0_627_32)">
<path d="M7.70187 0C8.48091 0 9.19115 0.067562 9.83272 0.202942C10.4743 0.338194 11.0242 0.560074 11.4824 0.867814C11.9406 1.17594 12.2957 1.58553 12.5478 2.0966C12.7998 2.60766 12.9259 3.23875 12.9259 3.99013C12.9259 4.80177 12.7387 5.47803 12.3645 6.01891C11.9901 6.55991 11.4366 7.00316 10.7035 7.34891C11.7115 7.63451 12.4638 8.13444 12.9603 8.84794C13.4564 9.56195 13.7052 10.4225 13.7052 11.4291C13.7052 12.2406 13.5448 12.9434 13.2238 13.5371C12.9032 14.131 12.4714 14.6155 11.9295 14.9907C11.3872 15.3666 10.7685 15.6444 10.0736 15.8251C9.37434 16.0058 8.65425 16.0967 7.93129 16.0954H0.00341797V0H7.70187ZM7.24368 6.515C7.88525 6.515 8.41211 6.36478 8.82465 6.06407C9.23706 5.76363 9.4432 5.27508 9.4432 4.59882C9.4432 4.22327 9.37453 3.91501 9.23706 3.67458C9.09959 3.43427 8.91634 3.24605 8.68718 3.11105C8.45802 2.97567 8.19453 2.88213 7.8967 2.82916C7.59036 2.77593 7.27982 2.74956 6.96874 2.75034H3.60066V6.51513H7.24368V6.515ZM7.44982 13.3452C7.80098 13.3452 8.13717 13.3113 8.45789 13.2437C8.77861 13.176 9.0611 13.0633 9.30573 12.9054C9.54985 12.7479 9.74468 12.5335 9.88995 12.2629C10.035 11.9925 10.1075 11.6469 10.1075 11.2259C10.1075 10.3997 9.87057 9.8098 9.39729 9.45651C8.92363 9.10334 8.2974 8.92663 7.51849 8.92663H3.60066V13.3449L7.44982 13.3452ZM18.2321 13.0071C18.7208 13.4734 19.4235 13.7059 20.34 13.7059C20.9965 13.7059 21.5619 13.5446 22.0353 13.2213C22.5088 12.8986 22.7991 12.5564 22.906 12.1956H25.77C25.312 13.5931 24.609 14.5928 23.6622 15.1936C22.7149 15.7949 21.5692 16.0954 20.2252 16.0954C19.2934 16.0954 18.4532 15.9489 17.7048 15.6557C16.9562 15.3628 16.3222 14.9457 15.8032 14.4047C15.2838 13.8638 14.8828 13.218 14.6002 12.4662C14.3175 11.715 14.1765 10.8882 14.1765 9.98651C14.1765 9.11511 14.3212 8.3036 14.6118 7.5521C14.9017 6.80086 15.314 6.15083 15.8492 5.60202C16.3834 5.05372 17.0214 4.6216 17.7623 4.30593C18.503 3.99025 19.324 3.83261 20.2253 3.83261C21.2335 3.83261 22.1117 4.02416 22.8604 4.4074C23.6086 4.79051 24.2235 5.30579 24.7049 5.95147C25.1859 6.59779 25.5332 7.33432 25.7475 8.16055C25.9613 8.98728 26.0374 9.85126 25.9767 10.753H17.4304C17.476 11.7897 17.7429 12.5415 18.2321 13.0071ZM21.9094 6.87559C21.52 6.45499 20.9279 6.24437 20.1339 6.24437C19.6144 6.24437 19.183 6.331 18.8394 6.50361C18.4957 6.67674 18.2206 6.89043 18.0143 7.14609C17.8083 7.40175 17.6629 7.67238 17.5792 7.9576C17.495 8.24321 17.4453 8.49874 17.4301 8.72407H22.7228C22.5701 7.91243 22.2991 7.29644 21.9094 6.87559ZM16.8745 0.81727H23.4874V2.62123H16.8745V0.81727Z" fill="#03045E"/>
</g>
<defs>
<clipPath id="clip0_627_32">
<rect width="26" height="16.0952" fill="white"/>
</clipPath>
</defs>
</svg>
