<svg width="26" height="16" viewBox="0 0 26 16" fill="none" xmlns="http://www.w3.org/2000/svg">
<g clip-path="url(#clip0_627_34)">
<path d="M7.33281 0.0332031C11.3828 0.0332031 14.6656 3.3885 14.6656 7.52703C14.6656 11.6657 11.3825 15.0206 7.33281 15.0206C3.28331 15.0206 0 11.6657 0 7.52703C0 3.3886 3.28301 0.0332031 7.33281 0.0332031ZM19.043 0.472137C21.0679 0.472137 22.7095 3.63044 22.7095 7.52703H22.7098C22.7098 11.4227 21.0682 14.5819 19.0434 14.5819C17.0185 14.5819 15.3769 11.4227 15.3769 7.52703C15.3769 3.63147 17.0181 0.472137 19.0431 0.472137H19.043ZM24.7105 1.20703C25.4225 1.20703 26 4.03659 26 7.52713C26 11.0165 25.4227 13.8472 24.7105 13.8472C23.9982 13.8472 23.4212 11.0174 23.4212 7.52713C23.4212 4.0368 23.9985 1.20703 24.7105 1.20703Z" fill="#03045E"/>
</g>
<defs>
<clipPath id="clip0_627_34">
<rect width="26" height="15.0526" fill="white"/>
</clipPath>
</defs>
</svg>
