<svg width="26" height="18" viewBox="0 0 26 18" fill="none" xmlns="http://www.w3.org/2000/svg">
<g clip-path="url(#clip0_627_33)">
<path d="M9.93402 17.7903C17.2105 17.7903 21.1897 11.6648 21.1897 6.35305C21.1897 6.17909 21.1862 6.00592 21.1785 5.83348C21.9528 5.26419 22.621 4.55933 23.1518 3.75193C22.443 4.07214 21.6802 4.28766 20.88 4.38483C21.6968 3.88719 22.3238 3.09992 22.6197 2.16149C21.8431 2.62958 20.9935 2.95957 20.1076 3.13722C19.3857 2.35587 18.358 1.86719 17.22 1.86719C15.0354 1.86719 13.2638 3.66738 13.2638 5.88638C13.2638 6.20186 13.2986 6.50862 13.3664 6.80296C10.0786 6.63485 7.1631 5.03529 5.21192 2.60307C4.8605 3.21653 4.67565 3.91373 4.67627 4.62348C4.67627 6.01811 5.37464 7.24924 6.4367 7.96952C5.80848 7.95003 5.19405 7.7776 4.64507 7.46675C4.64448 7.48363 4.64448 7.50007 4.64448 7.5181C4.64448 9.46482 6.00807 11.0902 7.8182 11.4585C7.47824 11.5526 7.12743 11.6002 6.77507 11.6C6.52061 11.6 6.27261 11.5745 6.03159 11.5275C6.53523 13.1247 7.99562 14.2869 9.72709 14.3194C8.3731 15.3978 6.66749 16.0401 4.81375 16.0401C4.4984 16.0403 4.18331 16.0218 3.87012 15.9844C5.62091 17.1247 7.69981 17.79 9.93421 17.79" fill="#03045E"/>
</g>
<defs>
<clipPath id="clip0_627_33">
<rect width="26" height="17.7895" fill="white"/>
</clipPath>
</defs>
</svg>
